<svg width="41" height="40" viewBox="0 0 41 40" fill="none" xmlns="http://www.w3.org/2000/svg">
<path d="M1.16315 22.0063C0.443795 20.7655 0.443795 19.2345 1.16315 17.9937L8.88589 4.67323C9.60136 3.43916 10.9199 2.67949 12.3464 2.67949H27.8208C29.2472 2.67949 30.5658 3.43916 31.2813 4.67323L39.004 17.9937C39.7233 19.2345 39.7233 20.7655 39.004 22.0063L31.2813 35.3268C30.5658 36.5608 29.2473 37.3205 27.8208 37.3205H12.3464C10.9199 37.3205 9.60136 36.5608 8.88589 35.3268L1.16315 22.0063Z" fill="#FFAE00"/>
<path d="M20 16.6406C21.8338 16.6406 23.3203 15.1541 23.3203 13.3203C23.3203 11.4866 21.8338 10 20 10C18.1662 10 16.6797 11.4866 16.6797 13.3203C16.6797 15.1541 18.1662 16.6406 20 16.6406Z" fill="white"/>
<path d="M22.4399 17.0898C21.7369 17.5464 20.8989 17.8119 20.0001 17.8119C19.1012 17.8119 18.2633 17.5464 17.5603 17.0898C16.7831 17.3868 16.0626 17.825 15.436 18.3873L20.0001 20.0989L24.5641 18.3873C23.9376 17.825 23.217 17.3868 22.4399 17.0898Z" fill="white"/>
<path d="M27.0312 22.1094H26.6406C26.317 22.1094 26.0547 22.3717 26.0547 22.6953V24.2578C26.0547 24.5814 26.317 24.8438 26.6406 24.8438H27.0312C27.7863 24.8438 28.3984 24.2316 28.3984 23.4766C28.3984 22.7215 27.7863 22.1094 27.0312 22.1094Z" fill="white"/>
<path d="M13.4163 19.1513C13.2583 19.2608 13.1641 19.4407 13.1641 19.6329V20.9374H13.3594C14.3286 20.9374 15.1172 21.7259 15.1172 22.6952V24.2577C15.1172 25.2269 14.3286 26.0155 13.3594 26.0155H13.1641V27.2501C13.1641 27.4943 13.3156 27.7129 13.5443 27.7987L19.4141 29.9999V21.1311L13.9557 19.0842C13.7758 19.0167 13.5742 19.0417 13.4163 19.1513Z" fill="white"/>
<path d="M24.8828 24.2577V22.6952C24.8828 21.7259 25.6714 20.9374 26.6406 20.9374H26.8359V19.6329C26.8359 19.4407 26.7417 19.2608 26.5838 19.1513C26.4258 19.0417 26.2241 19.0167 26.0443 19.0842L20.5859 21.1311V29.9999L26.4557 27.7987C26.6844 27.7129 26.8359 27.4943 26.8359 27.2501V26.0155H26.6406C25.6714 26.0155 24.8828 25.2269 24.8828 24.2577Z" fill="white"/>
<path d="M13.9453 24.2578V22.6953C13.9453 22.3717 13.683 22.1094 13.3594 22.1094H12.9688C12.2137 22.1094 11.6016 22.7215 11.6016 23.4766C11.6016 24.2316 12.2137 24.8438 12.9688 24.8438H13.3594C13.683 24.8438 13.9453 24.5814 13.9453 24.2578Z" fill="white"/>
</svg>
