<svg width="72" height="72" viewBox="0 0 72 72" fill="none" xmlns="http://www.w3.org/2000/svg">
<path d="M36 72C55.8823 72 72 55.8823 72 36C72 16.1177 55.8823 0 36 0C16.1177 0 0 16.1177 0 36C0 55.8823 16.1177 72 36 72Z" fill="url(#paint0_linear)"/>
<path d="M54 43.443C50.1165 43.443 46.413 42.597 42.9975 40.9275C42.462 40.671 41.841 40.6305 41.274 40.824C40.707 41.022 40.2435 41.436 39.9825 41.9715L38.3625 45.324C33.5025 42.534 29.4705 38.4975 26.676 33.6375L30.033 32.0175C30.573 31.7565 30.9825 31.293 31.1805 30.726C31.374 30.159 31.338 29.538 31.077 29.0025C29.403 25.5915 28.557 21.888 28.557 18C28.557 16.758 27.549 15.75 26.307 15.75H18C16.758 15.75 15.75 16.758 15.75 18C15.75 39.0915 32.9085 56.25 54 56.25C55.242 56.25 56.25 55.242 56.25 54V45.693C56.25 44.451 55.242 43.443 54 43.443Z" fill="#FAFAFA"/>
<defs>
<linearGradient id="paint0_linear" x1="0" y1="36" x2="72" y2="36" gradientUnits="userSpaceOnUse">
<stop stop-color="#4776E6"/>
<stop offset="1" stop-color="#8E54E9"/>
</linearGradient>
</defs>
</svg>
