<svg width="17" height="16" viewBox="0 0 17 16" fill="none" xmlns="http://www.w3.org/2000/svg">
<path d="M1.79203 13.1L2.7412 13.4733V7.45333L1.01995 11.36C0.729534 12.04 1.06245 12.82 1.79203 13.1ZM15.6045 10.6333L12.0912 2.66667C11.9874 2.42503 11.8107 2.21732 11.5828 2.06921C11.355 1.9211 11.086 1.8391 10.8091 1.83333C10.625 1.83333 10.4337 1.86 10.2495 1.93333L5.02912 3.96667C4.77715 4.0673 4.56115 4.23385 4.40672 4.44655C4.25229 4.65924 4.16593 4.90916 4.15787 5.16667C4.15078 5.33333 4.1862 5.52667 4.24995 5.7L7.79162 13.6667C7.99703 14.1867 8.5212 14.4933 9.0737 14.5C9.25787 14.5 9.44203 14.4667 9.61912 14.4L14.8325 12.3667C15.179 12.2331 15.455 11.9755 15.5998 11.6504C15.7446 11.3254 15.7463 10.9596 15.6045 10.6333ZM5.58162 5.83333C5.39376 5.83333 5.21359 5.76309 5.08075 5.63807C4.94791 5.51305 4.87328 5.34348 4.87328 5.16667C4.87328 4.98985 4.94791 4.82029 5.08075 4.69526C5.21359 4.57024 5.39376 4.5 5.58162 4.5C5.9712 4.5 6.28995 4.8 6.28995 5.16667C6.28995 5.53333 5.9712 5.83333 5.58162 5.83333ZM4.16495 13.1667C4.16495 13.5203 4.31421 13.8594 4.57988 14.1095C4.84556 14.3595 5.20589 14.5 5.58162 14.5H6.6087L4.16495 8.94V13.1667Z" fill="#3A3A44"/>
</svg>
